<svg viewBox="0 0 341 342" fill="none" xmlns="http://www.w3.org/2000/svg">
<path fill-rule="evenodd" clip-rule="evenodd" d="M181.235 63.7973C190.17 51.1033 207.402 34.5057 227.771 25.8226C239.171 20.9631 251.09 18.777 262.865 20.6906C274.515 22.5842 286.877 28.625 299.114 41.6806C329.121 73.6963 325.887 124.88 297.882 179.854C271.018 232.587 222.948 285.013 169.149 318.497C117.282 288.638 69.527 237.698 42.6015 185.316C14.492 130.631 10.9027 78.6599 41.5672 46.1259C54.6151 32.2825 67.147 25.5527 78.5438 23.0717C89.9521 20.5882 101.095 22.1723 111.671 26.4213C130.913 34.1516 147.458 50.4138 157.588 64.3306C148.03 76.8051 141.871 94.6806 140.801 110.202C140.171 119.353 141.194 129.115 145.61 136.994C150.428 145.588 158.858 151.06 170.172 151.06C175.559 151.06 180.579 149.806 184.924 147.122C189.26 144.443 192.367 140.686 194.478 136.54C198.553 128.543 199.158 118.715 198.267 109.638C196.725 93.9303 190.197 75.9198 181.235 63.7973ZM313.706 28.0035C298.808 12.1083 282.576 3.63175 266.073 0.949665C249.695 -1.7123 233.902 1.46774 219.928 7.42455C198.729 16.4613 180.661 32.3289 169.173 46.6067C157.366 32.0587 139.973 16.2378 119.127 7.86304C105.573 2.41725 90.3226 0.0390945 74.2896 3.52936C58.2452 7.02211 42.2879 16.2021 27.0131 32.4081C-12.7343 74.5788 -4.4059 137.614 24.8138 194.46C54.3533 251.927 107.116 307.455 164.563 338.855L169.578 341.596L174.485 338.667C233.438 303.473 286.283 246.684 315.703 188.933C344.797 131.821 352.724 69.632 313.706 28.0035ZM160.754 111.577C161.435 101.695 164.81 90.9762 169.471 82.6262C173.886 90.946 177.389 101.674 178.363 111.592C179.085 118.951 178.245 124.346 176.658 127.462C175.938 128.874 175.16 129.645 174.413 130.107C173.674 130.563 172.411 131.06 170.172 131.06C166.234 131.06 164.404 129.619 163.056 127.214C161.306 124.093 160.258 118.77 160.754 111.577Z" fill="currentColor"/>
</svg>
